<svg width="646" height="33" viewBox="0 0 646 33" fill="none" xmlns="http://www.w3.org/2000/svg">
<g opacity="0.4">
<g opacity="0.6">
<path d="M5.90261 0H28.2299C31.4911 0 34.1325 2.55547 34.1325 5.70677V27.2932C34.1325 30.4462 31.4893 33 28.2299 33H5.90261C2.64317 33 0 30.4445 0 27.2932V5.70677C0 2.55547 2.64317 0 5.90261 0Z" fill="#232B30"/>
<path d="M2.04788 13.4238L13.8531 2.01028C15.6199 0.302136 18.4952 0.313951 20.2777 2.03729L32.0288 13.3985C33.8096 15.1202 33.8218 17.9018 32.0568 19.6099L20.2515 31.0235C18.4848 32.7316 15.6094 32.7198 13.8269 30.9965L2.07581 19.6353C0.293332 17.9119 0.281111 15.132 2.04788 13.4238Z" fill="white"/>
<path d="M27.6031 16.5008C27.6031 22.1266 22.8859 26.6873 17.0671 26.689C11.2483 26.6906 6.52936 22.1266 6.52936 16.5008C6.52936 10.8734 11.2466 6.31271 17.0671 6.31271C22.8859 6.31271 27.6031 10.8734 27.6031 16.5008C27.6031 16.4991 27.6031 16.5008 27.6031 16.5008Z" fill="#1A2F3A"/>
<path d="M14.8866 13.7023V19.2977H20.674V18.2934H15.9254V17.0021H20.674V15.9979H15.9254V14.7066H20.674V13.7023H14.8866ZM13.4586 13.7023H14.4973V19.2977H13.4586V13.7023Z" fill="white"/>
<path d="M6.91689 13.7496C6.73009 14.396 6.60963 15.0678 6.55725 15.7582H12.4214V13.7496H6.91689ZM6.70215 18.3406C6.83309 19.0377 7.0391 19.7095 7.3097 20.3492H12.4232V18.3406H6.70215ZM8.89664 22.9317C9.54783 23.7031 10.3108 24.3816 11.1645 24.9403H12.4214V22.9317H8.89664Z" fill="white"/>
<path d="M13.4586 20.302V26.0729C14.122 26.3075 14.8168 26.478 15.5361 26.5793V20.302H13.4586ZM16.313 20.302V26.662C16.5609 26.6788 16.814 26.6873 17.0672 26.6873C19.2844 26.6873 21.3409 26.0239 23.0379 24.8931H18.3905V22.3106H25.7194C26.1681 21.6877 26.547 21.016 26.8438 20.302H16.313Z" fill="white"/>
<path d="M21.7128 8.10695V19.2977H23.7903V8.65889C23.5476 8.46478 23.2962 8.2808 23.0361 8.10695H21.7128ZM24.5672 9.34924V19.2994H27.2016C27.3919 18.6529 27.5176 17.9828 27.5735 17.2908H26.6465V14.7083H27.4425C27.3151 14.0112 27.1126 13.3394 26.8472 12.6997H26.6482V12.2507C26.1297 11.1671 25.4226 10.1864 24.5672 9.34924Z" fill="white"/>
<path d="M17.0671 6.31271C13.8845 6.31271 11.0318 7.67653 9.09917 9.83197V12.6963H20.674V10.6877H11.1767V8.10526H20.674V6.92542C19.5479 6.53045 18.3346 6.31271 17.0671 6.31271ZM8.32228 10.8143C7.91376 11.4017 7.5646 12.033 7.28876 12.698H8.32228V10.8143Z" fill="white"/>
<path d="M48.0187 8.20562L46.0233 17.8924C47.055 17.7625 47.7848 17.6983 48.2108 17.6983C48.5372 17.6983 48.7764 17.7625 48.9283 17.8924C49.1448 18.0781 49.2548 18.4849 49.26 19.1111C48.869 18.9811 48.4552 18.917 48.017 18.917C47.591 18.917 47.0777 18.9558 46.4772 19.0351L44.6301 19.2714C43.9702 19.3558 43.5093 19.398 43.2474 19.398C42.6818 19.398 42.3082 19.2141 42.1266 18.8478C42.0393 18.6722 41.98 18.3735 41.952 17.9515C42.3309 18.1541 42.7272 18.2553 43.1427 18.2553C43.3592 18.2553 43.738 18.2131 44.2809 18.1287L46.2764 8.42505C45.6933 8.52126 45.1923 8.56852 44.7715 8.56852C44.0488 8.56852 43.6786 8.14823 43.6594 7.30766C43.8637 7.44269 44.1238 7.51021 44.4381 7.51021C44.8291 7.51021 45.3948 7.44269 46.135 7.30766L47.4217 7.0798C48.3138 6.91607 48.9842 6.83505 49.4346 6.83505C49.8484 6.83505 50.1556 6.94814 50.3529 7.17263C50.5275 7.37518 50.6444 7.73639 50.7021 8.25626C50.4053 8.10941 50.0928 8.03683 49.7663 8.03683C49.4398 8.03683 49.1221 8.05371 48.8131 8.08747C48.7904 8.08747 48.6402 8.10941 48.3662 8.15498C48.2928 8.1668 48.1759 8.18368 48.0187 8.20562Z" fill="#232B30"/>
<path d="M54.4311 16.1151C55.0265 14.8914 55.7667 13.6541 56.6536 12.4017C57.2314 11.578 57.7657 11.0058 58.2545 10.6851C58.6927 10.3982 59.1379 10.253 59.5935 10.253C60.3407 10.253 60.8453 10.6615 61.1071 11.4801C61.2538 11.9207 61.3341 12.6583 61.3516 13.6963L61.369 14.6264C61.3987 15.6239 61.4214 16.2197 61.4389 16.4122C61.5139 17.1515 61.7618 17.5211 62.1826 17.5211C62.8181 17.5211 63.7625 16.5877 65.0178 14.7209C65.3216 14.2753 65.8575 13.4212 66.6274 12.157L67.3188 12.5469C66.6833 13.7031 65.9274 14.9184 65.0527 16.1927C64.632 16.8071 64.2741 17.273 63.9773 17.5886C63.6805 17.9043 63.3348 18.1861 62.9455 18.4343C62.4497 18.755 62.001 18.917 61.5977 18.917C61.1194 18.917 60.7196 18.7279 60.3983 18.3499C60.1068 18.0123 59.9148 17.3118 59.8205 16.2518C59.7908 15.9412 59.7716 15.4028 59.7594 14.6365L59.7506 13.9681C59.7384 13.1613 59.7018 12.6093 59.6372 12.3106C59.5446 11.87 59.3282 11.6506 58.9895 11.6506C58.5583 11.6506 58.0816 11.9831 57.5631 12.6482C57.0202 13.3469 56.3533 14.3816 55.5589 15.7522C55.1557 16.451 54.9077 16.8831 54.8152 17.0468C54.4015 17.7456 54.1937 18.2587 54.1937 18.5862C54.1937 18.6993 54.2286 18.8123 54.2985 18.9237C53.9894 19.0486 53.7241 19.1094 53.5024 19.1094C52.9594 19.1094 52.6888 18.8191 52.6888 18.2385C52.6888 18.0123 52.729 17.5397 52.811 16.8172L52.8983 15.9885L53.0816 14.2972C53.1567 13.5984 53.1951 13.0431 53.1951 12.6313C53.1951 12.2937 53.1654 12.027 53.1078 11.8363C53.0677 11.6894 52.9681 11.5206 52.811 11.3282C52.921 11.2945 53.1078 11.2303 53.3714 11.1341C53.7101 11.021 53.9772 10.9653 54.1762 10.9653C54.597 10.9653 54.8065 11.259 54.8065 11.8447C54.8065 12.0709 54.7506 12.7697 54.6406 13.9428L54.4311 16.1151Z" fill="#232B30"/>
<path d="M66.2625 12.7055H66.0967C65.3041 12.7055 64.6058 12.898 64.0052 13.2811C64.1274 12.633 64.3177 12.2144 64.5743 12.0287C64.8362 11.8363 65.3617 11.7418 66.1491 11.7418H66.4633L66.7252 10.4556C66.9172 9.53061 67.1197 8.82338 67.3292 8.33221C67.8198 7.19794 68.5985 6.35231 69.6652 5.79362C70.3705 5.42734 71.0478 5.24336 71.6955 5.24336C72.1739 5.24336 72.5912 5.35308 72.9473 5.5725C73.2511 5.76492 73.403 6.00967 73.403 6.30842C73.403 6.60718 73.0538 6.95151 72.3537 7.33973C72.2839 7.0359 72.2018 6.81817 72.1093 6.6882C71.8649 6.33374 71.5053 6.15482 71.0339 6.15482C70.3565 6.15482 69.7594 6.58355 69.2409 7.441C68.9371 7.9423 68.6613 8.79975 68.4099 10.0133L68.0607 11.7384H70.8785C72.1669 11.7384 73.1132 11.6709 73.7137 11.5358C73.4745 12.0489 73.1952 12.3764 72.874 12.5165C72.64 12.6228 72.2141 12.6802 71.596 12.6853C71.486 12.6903 71.0444 12.6971 70.2744 12.7022H67.86L66.486 19.393C66.3516 20.0411 66.2852 20.6049 66.2852 21.0842C66.2852 21.3881 66.3551 21.6683 66.4947 21.9214C65.964 22.097 65.552 22.1831 65.2604 22.1831C64.8118 22.1831 64.5865 21.9231 64.5865 21.4049C64.5865 21.0555 64.6738 20.4496 64.8484 19.5854L66.2625 12.7055Z" fill="#232B30"/>
<path d="M79.7106 13.1714C79.728 13.3064 79.7368 13.4195 79.7368 13.509C79.7368 14.4002 79.5063 15.2948 79.0454 16.191C78.5374 17.1785 77.8094 17.9363 76.8579 18.4663C76.088 18.8951 75.2867 19.1094 74.4522 19.1094C73.4309 19.1094 72.5911 18.8157 71.933 18.23C71.1683 17.5532 70.7859 16.6451 70.7859 15.5058C70.7859 14.2432 71.2608 13.1596 72.2123 12.2566C73.0765 11.4329 74.0786 11.021 75.2221 11.021C75.4089 11.021 75.5992 11.043 75.7912 11.0885C75.662 10.8522 75.5992 10.6564 75.5992 10.5045C75.5992 10.2514 75.6865 10.0083 75.861 9.77705C76.3394 9.81081 76.727 9.88677 77.0255 10.0049C77.551 10.2075 78.0905 10.5856 78.6439 11.1392C78.808 11.3029 78.9703 11.497 79.1344 11.7232C79.4312 11.9207 79.7874 12.0962 80.2011 12.2481C80.8838 12.4912 81.4581 12.6127 81.9243 12.6127C82.3974 12.6127 82.8426 12.5249 83.2633 12.3511C83.4327 12.2836 83.6683 12.1654 83.9721 11.9949L84.3754 12.6634C83.5182 13.2389 82.6401 13.5259 81.741 13.5259C81.1509 13.5276 80.4752 13.4077 79.7106 13.1714ZM77.8722 12.503C77.441 12.373 77.029 12.1654 76.6379 11.8768C76.3638 11.8211 76.1369 11.7924 75.9553 11.7924C75.367 11.7924 74.7909 11.9814 74.2322 12.3595C73.5845 12.7933 73.1026 13.3942 72.7884 14.1622C72.5719 14.6871 72.4654 15.2019 72.4654 15.71C72.4654 16.3919 72.64 16.954 72.9909 17.3928C73.183 17.6409 73.4291 17.8384 73.7259 17.9853C74.0576 18.1541 74.4033 18.2385 74.7577 18.2385C75.5224 18.2385 76.2224 17.8924 76.8579 17.1987C77.6802 16.3024 78.0922 15.1479 78.0922 13.7385C78.0922 13.3216 78.0189 12.9098 77.8722 12.503Z" fill="#232B30"/>
<path d="M86.0995 12.7983L85.6875 14.8035L85.5915 15.3791C85.4868 15.9935 85.4344 16.4003 85.4344 16.5977C85.4344 16.9083 85.5164 17.1227 85.6788 17.2408C86.0105 17.4889 86.6268 17.6138 87.5259 17.6138C88.8963 17.6138 90.1079 17.3742 91.1572 16.8948C91.028 17.3235 90.8883 17.6341 90.7364 17.8248C90.5269 18.1067 90.183 18.3042 89.7047 18.4173C89.4533 18.4797 88.8125 18.5861 87.779 18.738C87.2012 18.8224 86.6914 18.8646 86.2479 18.8646C85.3611 18.8646 84.6907 18.7262 84.235 18.4494C83.8143 18.1962 83.6048 17.7607 83.6048 17.1463C83.6048 16.8594 83.6921 16.2855 83.8666 15.4297L84.4096 12.7983H84.2787C83.7357 12.7983 83.212 12.9131 82.7039 13.1443C82.9379 12.6936 83.1334 12.3831 83.2905 12.2143C83.5122 11.9611 83.8649 11.8328 84.3485 11.8328H84.6016L85.3977 7.98442H85.162C84.1652 7.98442 83.2434 8.29162 82.3967 8.90601C82.5486 8.42665 82.7092 8.0705 82.8785 7.83926C83.2469 7.32108 83.8666 7.04933 84.743 7.02739C84.8949 7.02232 85.609 7.01895 86.8869 7.01895H89.2926C89.8408 7.01895 90.5898 6.96831 91.5413 6.86704C92.0668 6.81133 92.5503 6.71512 92.9938 6.58009C92.6202 7.14385 92.285 7.5135 91.9882 7.68904C91.7019 7.85783 91.2759 7.95404 90.7103 7.97598C90.5008 7.98104 90.1656 7.98442 89.7047 7.98442H87.0877L86.3003 11.8328H87.9711C88.6362 11.8328 89.1443 11.8075 89.4934 11.7569C89.9019 11.7012 90.3244 11.5813 90.7626 11.4007C90.4536 11.9594 90.1743 12.3291 89.9229 12.5097C89.6959 12.6734 89.3433 12.7628 88.8649 12.7797C88.7776 12.7797 88.4128 12.7848 87.772 12.7966L86.0995 12.7983Z" fill="#232B30"/>
<path d="M98.1056 15.8264C98.2924 16.2163 98.3849 16.591 98.3849 16.9522C98.3849 17.7877 98.0235 18.4915 97.3007 19.0671C96.5884 19.6309 95.7993 19.9127 94.9299 19.9127C94.3992 19.9127 93.933 19.7743 93.5298 19.4975C93.1562 19.2443 92.9694 18.922 92.9694 18.5337C92.9694 18.24 93.0828 17.9565 93.3098 17.6797C93.5193 17.4197 94.1181 17.0197 95.1027 16.4779C95.5235 16.2466 95.9512 16.0289 96.3894 15.8264L95.7417 14.8119C95.5025 14.4507 95.2599 14.0389 95.0155 13.5764C94.7117 13.0126 94.5598 12.4708 94.5598 11.9526C94.5598 11.3214 94.7414 10.8083 95.1027 10.4133C95.3419 10.1483 95.7592 9.86641 96.3545 9.56766C97.0843 9.83266 97.4474 10.1736 97.4474 10.5905C97.4474 10.8437 97.3287 11.1256 97.0895 11.4362C96.873 11.713 96.5273 11.9881 96.049 12.2649C96.1241 12.4168 96.262 12.6565 96.461 12.984L96.7054 13.4414L96.976 13.8988L97.6848 15.1596C98.4373 14.7309 98.9907 14.3933 99.3468 14.1486C99.703 13.9039 100.07 13.6085 100.45 13.2641C100.906 12.8405 101.419 12.3105 101.99 11.6741L102.638 12.0556C102.055 12.8118 101.41 13.4937 100.703 14.103C100.021 14.682 99.1548 15.2575 98.1056 15.8264ZM96.7403 16.5285C95.9931 16.9117 95.41 17.2644 94.991 17.5851C94.5703 17.9058 94.3608 18.1894 94.3608 18.4308C94.3608 18.6283 94.4533 18.7836 94.6401 18.8966C94.8269 19.0097 95.0539 19.0654 95.3227 19.0654C95.8308 19.0654 96.2323 18.8933 96.5308 18.5489C96.7927 18.2552 96.9254 17.8755 96.9254 17.4062C96.9236 17.1379 96.8625 16.8442 96.7403 16.5285Z" fill="#232B30"/>
<path d="M112.088 12.1974C111.201 13.6405 110.187 14.952 109.043 16.1319C107.194 18.0493 105.476 19.008 103.889 19.008C102.903 19.008 102.098 18.7059 101.475 18.1033C101.143 17.7877 100.883 17.3894 100.696 16.91C100.492 16.3969 100.391 15.8618 100.391 15.3031C100.391 14.3613 100.656 13.4616 101.187 12.6042C101.788 11.6404 102.592 10.918 103.601 10.4386C104.349 10.0842 105.141 9.90524 105.981 9.90524C106.606 9.90524 107.112 10.0268 107.503 10.2698C107.877 10.496 108.064 10.7779 108.064 11.1155C108.064 11.6843 107.559 12.113 106.55 12.4016C106.602 12.2767 106.629 12.1535 106.629 12.0286C106.629 11.6505 106.527 11.3602 106.323 11.1577C106.061 10.9045 105.702 10.7762 105.248 10.7762C104.53 10.7762 103.865 11.1256 103.252 11.8244C102.856 12.27 102.549 12.778 102.334 13.3469C102.13 13.8819 102.028 14.4035 102.028 14.9115C102.028 15.7572 102.262 16.4543 102.729 17.0011C103.154 17.5024 103.734 17.7539 104.469 17.7539C105.314 17.7539 106.234 17.3759 107.226 16.6197C108.13 15.9378 109.179 14.8119 110.375 13.2439C110.707 12.8101 111.053 12.3274 111.407 11.7974L112.088 12.1974Z" fill="#232B30"/>
<path d="M118.509 12.8236C118.526 12.9586 118.535 13.0717 118.535 13.1612C118.535 14.0524 118.305 14.947 117.844 15.8433C117.336 16.8307 116.608 17.5885 115.656 18.1185C114.886 18.5473 114.085 18.7616 113.25 18.7616C112.229 18.7616 111.389 18.4679 110.731 17.8822C109.967 17.2054 109.584 16.2973 109.584 15.158C109.584 13.8954 110.059 12.8118 111.011 11.9088C111.875 11.0851 112.877 10.6732 114.02 10.6732C114.207 10.6732 114.397 10.6952 114.59 10.7408C114.46 10.5044 114.397 10.3087 114.397 10.1567C114.397 9.90356 114.485 9.6605 114.659 9.42926C115.138 9.46302 115.525 9.53897 115.824 9.65713C116.349 9.85967 116.889 10.2378 117.442 10.7914C117.606 10.9551 117.769 11.1492 117.933 11.3754C118.23 11.5729 118.586 11.7484 118.999 11.9003C119.682 12.1434 120.256 12.2649 120.723 12.2649C121.196 12.2649 121.641 12.1771 122.062 12.0033C122.231 11.9358 122.467 11.8176 122.77 11.6472L123.174 12.3156C122.317 12.8911 121.438 13.1781 120.539 13.1781C119.951 13.1781 119.274 13.0599 118.509 12.8236ZM116.672 12.1552C116.241 12.0252 115.829 11.8176 115.438 11.529C115.164 11.4733 114.937 11.4446 114.755 11.4446C114.167 11.4446 113.591 11.6336 113.032 12.0117C112.385 12.4455 111.903 13.0464 111.588 13.8144C111.372 14.3393 111.265 14.8541 111.265 15.3622C111.265 16.0441 111.44 16.6062 111.791 17.045C111.983 17.2932 112.229 17.4906 112.526 17.6375C112.858 17.8063 113.203 17.8907 113.558 17.8907C114.322 17.8907 115.023 17.5446 115.658 16.8509C116.48 15.9547 116.892 14.8001 116.892 13.3907C116.891 12.9721 116.819 12.5603 116.672 12.1552Z" fill="#232B30"/>
<path d="M129.902 12.2058C129.272 13.3739 128.488 14.5807 127.549 15.8264C126.779 16.8526 126.07 17.597 125.422 18.0595C124.762 18.527 124.139 18.7616 123.549 18.7616C123.175 18.7616 122.814 18.6519 122.465 18.4325C121.795 18.0088 121.459 17.2678 121.459 16.2078C121.459 15.7842 121.538 15.185 121.695 14.4052L123.305 6.58009C123.1 6.61385 122.919 6.63073 122.762 6.63073C121.87 6.63073 121.297 6.37417 121.047 5.86105C120.948 5.66357 120.899 5.36143 120.899 4.95634C121.273 5.15889 121.604 5.29392 121.896 5.36312C122.269 5.44752 122.666 5.48971 123.086 5.48971C123.553 5.48971 123.973 5.43908 124.347 5.3378C124.574 5.27029 124.864 5.12344 125.213 4.89726L123.348 14.287C123.179 15.1276 123.095 15.7048 123.095 16.0205C123.095 16.483 123.217 16.8408 123.464 17.0957C123.628 17.2594 123.841 17.3404 124.103 17.3404C124.85 17.3404 125.721 16.7142 126.719 15.4618C127.308 14.7225 127.784 14.0743 128.146 13.5156L129.116 12.0016L129.256 11.7822L129.902 12.2058Z" fill="#232B30"/>
<path d="M134.591 13.7958C134.113 14.7427 133.492 15.666 132.727 16.5623C131.473 18.0291 130.365 18.7616 129.401 18.7616C128.888 18.7616 128.457 18.5439 128.106 18.1101C127.72 17.6307 127.528 16.9573 127.528 16.088C127.528 15.1124 127.736 14.1537 128.149 13.2118C128.633 12.1231 129.331 11.2809 130.241 10.6817C131.033 10.1635 131.819 9.90355 132.594 9.90355C133.404 9.90355 134.286 10.1483 135.237 10.6395C135.319 10.3745 135.464 10.1939 135.676 10.0977C135.937 9.9795 136.355 9.92043 136.927 9.92043C137.015 9.92043 137.126 9.9238 137.259 9.92887C136.95 10.3795 136.716 10.9973 136.559 11.7822L136.419 12.4506C136.349 12.7949 136.29 13.2743 136.245 13.8887C136.21 14.4187 136.192 14.8001 136.192 15.0314C136.192 15.6356 136.245 16.061 136.349 16.3091C136.466 16.596 136.688 16.7412 137.015 16.7412C137.907 16.7412 139.172 15.7622 140.812 13.806C141.407 13.0954 141.926 12.4101 142.369 11.7501L142.999 12.1738C142.463 13.1038 141.781 14.0625 140.951 15.0499C140.124 16.0306 139.286 16.807 138.441 17.3759C137.631 17.9177 136.91 18.1877 136.28 18.1877C135.894 18.1877 135.539 18.0443 135.213 17.7556C134.764 17.3607 134.539 16.5657 134.539 15.3706C134.539 14.9639 134.556 14.4389 134.591 13.7958ZM134.977 11.9442C133.839 11.2285 132.91 10.869 132.186 10.869C131.521 10.869 130.934 11.156 130.428 11.7315C129.996 12.2278 129.658 12.9553 129.413 13.914C129.244 14.5621 129.16 15.1596 129.16 15.7082C129.16 16.1369 129.235 16.4914 129.387 16.775C129.469 16.9218 129.591 17.0433 129.755 17.1395C129.907 17.229 130.059 17.2746 130.211 17.2746C130.503 17.2746 130.847 17.1024 131.243 16.7581C132.001 16.1032 132.879 15.0297 133.877 13.5342C134.387 12.7612 134.756 12.2312 134.977 11.9442Z" fill="#232B30"/>
<path d="M48.7031 21.6759C49.2653 21.8346 49.5813 21.9139 49.6494 21.9139C49.789 21.9139 49.9217 21.8751 50.0457 21.7991C50.1714 21.7215 50.2569 21.6017 50.3058 21.4379H50.6165L50.7545 24.7563H50.4158C50.2185 24.0981 49.9619 23.5664 49.6441 23.1613C49.0383 22.4017 48.223 22.0219 47.1965 22.0219C46.1612 22.0219 45.3162 22.4304 44.6598 23.249C44.0034 24.0677 43.6752 25.1918 43.6752 26.6265C43.6752 27.9448 44.0208 28.9963 44.7104 29.7829C45.4 30.5694 46.2747 30.9627 47.3344 30.9627C48.0991 30.9627 48.8044 30.7804 49.4486 30.4142C49.8187 30.2082 50.2255 29.8943 50.6689 29.4757L50.943 29.7491C50.6165 30.1627 50.2098 30.5256 49.7227 30.8378C48.8952 31.3678 47.9978 31.6311 47.0306 31.6311C45.4419 31.6311 44.1814 31.1231 43.2492 30.1086C42.3885 29.1702 41.9573 27.9988 41.9573 26.5944C41.9573 25.1564 42.4112 23.9495 43.3208 22.9722C44.2775 21.9477 45.524 21.4362 47.0603 21.4362C47.591 21.4362 48.141 21.5156 48.7031 21.6759Z" fill="#232B30"/>
<path d="M54.6197 31.3864V31.1129C55.0003 31.0707 55.2848 30.9273 55.4751 30.6842C55.6654 30.4412 55.9902 29.7761 56.4528 28.6891L59.5324 21.4362H59.8275L63.5111 29.8133C63.7573 30.3686 63.9528 30.7112 64.0995 30.8429C64.2461 30.9745 64.4923 31.064 64.8397 31.1112V31.3847H61.081V31.1112C61.5122 31.0724 61.7915 31.0269 61.9172 30.9712C62.0429 30.9155 62.104 30.7804 62.104 30.5661C62.104 30.4952 62.0796 30.3669 62.0324 30.1863C61.9835 30.004 61.9172 29.8133 61.8299 29.6124L61.2381 28.1912H57.3432C56.9591 29.1584 56.7304 29.7474 56.6553 29.9601C56.5802 30.1728 56.5436 30.3416 56.5436 30.4665C56.5436 30.7146 56.6448 30.8884 56.8474 30.983C56.9731 31.0404 57.207 31.0842 57.5527 31.1129V31.3864H54.6197ZM60.9867 27.592L59.2932 23.5225L57.5911 27.592H60.9867Z" fill="#232B30"/>
<path d="M68.9861 28.414C69.2357 29.0773 69.529 29.6073 69.8659 30.0006C70.4525 30.6893 71.1805 31.0319 72.05 31.0319C72.5213 31.0319 72.9281 30.8834 73.272 30.5846C73.616 30.2859 73.787 29.8706 73.787 29.3356C73.787 28.8545 73.6142 28.4359 73.2685 28.0798C73.0433 27.8536 72.5667 27.5144 71.8422 27.062L70.5817 26.2754C70.2029 26.0358 69.8991 25.7927 69.6739 25.5463C69.2549 25.0804 69.0454 24.5656 69.0454 24.0018C69.0454 23.2558 69.2933 22.6363 69.7891 22.1401C70.2849 21.6455 70.9414 21.3974 71.7602 21.3974C72.0971 21.3974 72.5021 21.4801 72.977 21.6455C73.4501 21.811 73.7207 21.8937 73.7888 21.8937C73.9721 21.8937 74.0978 21.8498 74.1676 21.7637C74.2375 21.6776 74.2916 21.5544 74.33 21.3957H74.6338L74.9585 24.542H74.6041C74.3632 23.5951 73.9773 22.9334 73.4449 22.557C72.9124 22.1823 72.3869 21.9949 71.8684 21.9949C71.4634 21.9949 71.1125 22.1148 70.8104 22.3528C70.5102 22.5908 70.36 22.9216 70.36 23.3453C70.36 23.725 70.4752 24.0508 70.7057 24.3192C70.9361 24.5926 71.294 24.8795 71.7794 25.1783L73.0782 25.9784C73.8901 26.478 74.4644 26.9388 74.7979 27.3557C75.1261 27.7793 75.2902 28.279 75.2902 28.8562C75.2902 29.631 74.9986 30.2774 74.4138 30.7973C73.8289 31.3172 73.0817 31.5771 72.1722 31.5771C71.7148 31.5771 71.2382 31.491 70.7389 31.3172C70.2413 31.1433 69.955 31.0572 69.8834 31.0572C69.7106 31.0572 69.5936 31.1096 69.5325 31.2159C69.4731 31.3222 69.433 31.4353 69.4138 31.5552H69.0891L68.6491 28.4089H68.9861V28.414Z" fill="#232B30"/>
<path d="M79.4487 31.1129C80.0266 31.0505 80.3862 30.9441 80.5311 30.7939C80.676 30.6437 80.7476 30.2487 80.7476 29.6124V23.2119C80.7476 22.6836 80.6673 22.3393 80.5067 22.1806C80.3461 22.0219 79.9934 21.924 79.4487 21.8852V21.6118H83.5479V21.8852C83.0067 21.924 82.6558 22.0219 82.4934 22.1806C82.3311 22.3393 82.249 22.6836 82.249 23.2119V26.0915H86.7393V23.2119C86.7393 22.6836 86.6607 22.3393 86.5018 22.1806C86.343 22.0219 85.9886 21.924 85.4404 21.8852V21.6118H89.5396V21.8852C88.9966 21.924 88.644 22.0219 88.4816 22.1806C88.321 22.3393 88.2407 22.6836 88.2407 23.2119V29.7846C88.2407 30.3196 88.321 30.664 88.4816 30.8142C88.6422 30.9644 88.9949 31.064 89.5396 31.1112V31.3847H85.4404V31.1112C86.0217 31.0539 86.3849 30.9492 86.5263 30.7956C86.6677 30.642 86.7393 30.247 86.7393 29.6107V26.7396H82.249V29.7846C82.249 30.3196 82.3311 30.6656 82.4934 30.8176C82.6558 30.9712 83.0085 31.0691 83.5479 31.1112V31.3847H79.4487V31.1129Z" fill="#232B30"/>
<path d="M93.9897 31.1129C94.5832 31.0792 94.9673 30.988 95.1419 30.8361C95.3165 30.6859 95.4038 30.3348 95.4038 29.7846V23.2119C95.4038 22.6684 95.3165 22.319 95.1419 22.162C94.9673 22.0051 94.5832 21.9139 93.9897 21.8835V21.6101H98.129C99.3109 21.6101 100.25 21.8008 100.945 22.1806C101.64 22.5604 101.987 23.2153 101.987 24.1453C101.987 24.8441 101.745 25.3724 101.258 25.7336C100.983 25.9412 100.571 26.1117 100.023 26.2467C100.702 26.4105 101.282 26.6822 101.762 27.0654C102.244 27.4468 102.483 27.9819 102.483 28.6689C102.483 29.8217 101.949 30.615 100.882 31.0471C100.32 31.2733 99.6269 31.3864 98.8046 31.3864H93.9879V31.1129H93.9897ZM99.5466 25.7505C100.172 25.4619 100.484 24.9437 100.484 24.1959C100.484 23.3149 100.123 22.719 99.4017 22.4102C99.0019 22.2414 98.3961 22.157 97.5826 22.157C97.2753 22.157 97.085 22.184 97.0117 22.2363C96.9401 22.2886 96.9034 22.4338 96.9034 22.6701V26.0104L98.3106 25.9885C98.8081 25.98 99.2201 25.9007 99.5466 25.7505ZM100.023 30.4125C100.533 30.1188 100.788 29.5567 100.788 28.7246C100.788 27.8975 100.489 27.3321 99.8923 27.0282C99.2952 26.7244 98.5358 26.5742 97.6122 26.5742C97.3853 26.5742 97.2421 26.5742 97.1828 26.5742C97.1234 26.5742 97.0291 26.5725 96.9052 26.5674V30.247C96.9052 30.5019 96.9768 30.6673 97.1217 30.7416C97.2666 30.8159 97.6 30.853 98.1255 30.853C98.8814 30.853 99.5134 30.7061 100.023 30.4125Z" fill="#232B30"/>
<path d="M105.877 31.3864V31.1129C106.258 31.0707 106.542 30.9273 106.732 30.6842C106.923 30.4412 107.247 29.7761 107.71 28.6891L110.79 21.4379H111.085L114.768 29.815C115.015 30.3703 115.21 30.7129 115.357 30.8446C115.503 30.9762 115.75 31.0657 116.097 31.1129V31.3864H112.338V31.1129C112.769 31.0741 113.049 31.0286 113.174 30.9728C113.3 30.9171 113.361 30.7821 113.361 30.5678C113.361 30.4969 113.337 30.3686 113.29 30.188C113.241 30.0057 113.174 29.815 113.087 29.6141L112.495 28.1929H108.6C108.216 29.1601 107.988 29.7491 107.913 29.9618C107.837 30.1745 107.801 30.3433 107.801 30.4682C107.801 30.7163 107.902 30.8901 108.105 30.9847C108.23 31.0421 108.464 31.0859 108.81 31.1146V31.3881H105.877V31.3864ZM112.242 27.592L110.549 23.5225L108.847 27.592H112.242Z" fill="#232B30"/>
<path d="M126.406 21.6759C126.968 21.8346 127.284 21.9139 127.352 21.9139C127.492 21.9139 127.625 21.8751 127.748 21.7991C127.874 21.7215 127.96 21.6017 128.009 21.4379H128.319L128.457 24.7563H128.119C127.921 24.0981 127.665 23.5664 127.347 23.1613C126.741 22.4017 125.926 22.0219 124.899 22.0219C123.864 22.0219 123.019 22.4304 122.363 23.249C121.706 24.0677 121.378 25.1918 121.378 26.6265C121.378 27.9448 121.724 28.9963 122.413 29.7829C123.103 30.5694 123.978 30.9627 125.037 30.9627C125.802 30.9627 126.507 30.7804 127.151 30.4142C127.522 30.2082 127.928 29.8943 128.372 29.4757L128.646 29.7491C128.319 30.1627 127.913 30.5256 127.426 30.8378C126.598 31.3678 125.701 31.6311 124.733 31.6311C123.145 31.6311 121.884 31.1231 120.952 30.1086C120.091 29.1702 119.66 27.9988 119.66 26.5944C119.66 25.1564 120.114 23.9495 121.024 22.9722C121.98 21.9477 123.227 21.4362 124.763 21.4362C125.296 21.4362 125.844 21.5156 126.406 21.6759Z" fill="#232B30"/>
<path d="M132.373 31.1349C132.976 31.0859 133.347 30.9796 133.492 30.8142C133.637 30.6488 133.709 30.2521 133.709 29.6259V23.2153C133.709 22.6802 133.629 22.3342 133.468 22.1789C133.307 22.0219 132.942 21.9241 132.375 21.8869V21.6135H136.582V21.8869C136.005 21.9156 135.633 22.0118 135.463 22.1755C135.294 22.3393 135.21 22.6853 135.21 23.2136V26.2417C136.12 25.4653 136.865 24.8053 137.443 24.2618C138.478 23.2777 138.997 22.6482 138.997 22.3697C138.997 22.1739 138.91 22.0439 138.733 21.9814C138.557 21.919 138.309 21.8886 137.986 21.8886V21.6152H141.858V21.8886C141.385 21.9359 141.013 22.027 140.741 22.162C140.469 22.2971 140.091 22.5941 139.61 23.0516L136.724 25.7252L140.243 29.528C140.884 30.2116 141.321 30.637 141.551 30.8074C141.781 30.9779 142.122 31.0876 142.571 31.14V31.3931H138.049V31.14C138.457 31.1248 138.735 31.0927 138.88 31.0421C139.025 30.9914 139.096 30.8918 139.096 30.7416C139.096 30.6606 139.049 30.534 138.955 30.3652C138.861 30.1964 138.712 30.0006 138.512 29.7795L135.664 26.7042L135.208 27.1261V29.7998C135.208 30.3483 135.292 30.6977 135.458 30.8446C135.624 30.9914 135.985 31.0893 136.544 31.1366V31.3898H132.372V31.1349H132.373Z" fill="#232B30"/>
</g>
<g opacity="0.6">
<path d="M566.085 14.4L563.387 14.8727C563.387 14.3409 563.272 13.9273 563.1 13.5136C562.698 12.6864 562.124 12.2727 561.263 12.2727C559.541 12.2727 558.68 13.6909 558.68 16.5864C558.68 17.8273 558.852 18.8909 559.254 19.7182C559.426 20.1318 559.713 20.4864 560.115 20.7818C560.459 21.0182 560.861 21.1364 561.32 21.1364C562.526 21.1364 563.215 20.3091 563.502 18.5955L566.2 18.95C566.085 19.7773 565.856 20.4864 565.511 21.1364C564.593 22.6136 563.215 23.3227 561.263 23.3227C559.483 23.3227 558.105 22.7318 557.129 21.4909C556.154 20.3091 555.694 18.7727 555.694 17C555.694 15.05 556.154 13.4546 557.072 12.2136C558.163 10.7955 559.598 10.0273 561.435 10.0273C562.87 10.0273 564.076 10.5591 565.052 11.6818C565.569 12.45 565.971 13.3364 566.085 14.4Z" fill="#232B30"/>
<path d="M570.276 13.9273L567.348 13.5136C567.521 12.6864 567.865 11.9773 568.439 11.4455C569.358 10.5591 570.678 10.0864 572.343 10.0864C575.673 10.0864 577.338 11.5045 577.338 14.2818V20.0727C577.338 21.1955 577.395 22.2 577.51 23.0864H574.525C574.41 22.7909 574.352 22.3773 574.238 21.8455C572.917 22.85 571.654 23.3818 570.449 23.3818C569.358 23.3818 568.439 23.0273 567.75 22.3773C567.061 21.7273 566.717 20.8409 566.717 19.7182C566.717 17.7091 568.037 16.4091 570.621 15.7591C571.941 15.4636 573.147 15.1682 574.238 15.05V14.6364C574.238 13.8091 574.18 13.2182 574.008 12.9818C573.778 12.5091 573.204 12.2727 572.401 12.2727C571.195 12.2727 570.449 12.8636 570.276 13.9273ZM574.295 17.4136C573.204 17.5909 572.228 17.8273 571.425 18.1227C570.391 18.4773 569.817 19.0682 569.817 19.8955C569.817 20.3091 569.932 20.6636 570.219 20.9C570.449 21.0773 570.793 21.1955 571.138 21.1955C571.999 21.1955 573.032 20.7227 574.238 19.7182V17.4136H574.295Z" fill="#232B30"/>
<path d="M587.212 13.2773L584.514 13.6909C584.457 13.2773 584.342 12.9818 584.17 12.8045C583.94 12.45 583.538 12.2727 582.964 12.2727C582.332 12.2727 581.816 12.5091 581.529 12.9227C581.356 13.2182 581.242 13.5136 581.242 13.8682C581.242 14.1636 581.299 14.4 581.471 14.5773C581.701 14.8727 582.045 15.05 582.505 15.1682L584.284 15.5818C585.375 15.8182 586.236 16.2909 586.753 16.9409C587.327 17.5909 587.557 18.4182 587.557 19.3636C587.557 20.6636 587.097 21.6682 586.122 22.4364C585.318 23.0864 584.17 23.3818 582.792 23.3818C581.242 23.3818 580.093 22.9682 579.405 22.0818C578.945 21.55 578.601 20.7818 578.429 19.7773L581.184 19.3636C581.299 20.0136 581.529 20.5455 581.816 20.8409C582.103 21.0773 582.505 21.1955 583.021 21.1955C583.481 21.1955 583.883 21.0773 584.227 20.8409C584.686 20.5455 584.858 20.1318 584.858 19.6C584.858 19.3636 584.801 19.1273 584.629 18.8909C584.399 18.5955 583.94 18.4182 583.194 18.2409C581.758 17.9455 580.782 17.65 580.093 17.2364C579.06 16.5864 578.543 15.5818 578.543 14.2227C578.543 12.8045 579.117 11.7409 580.208 10.9727C581.069 10.3818 582.045 10.0864 583.194 10.0864C584.457 10.0864 585.547 10.5 586.351 11.2682C586.753 11.7409 587.097 12.3909 587.212 13.2773Z" fill="#232B30"/>
<path d="M591.633 5.06364V12.1546C592.838 10.7364 594.101 10.0273 595.364 10.0273C596.111 10.0273 596.8 10.2636 597.374 10.7364C597.948 11.2091 598.35 11.9182 598.522 12.7455C598.579 13.1 598.637 13.5727 598.637 14.1636V22.9682H595.537V14.6955C595.537 13.9864 595.479 13.5136 595.364 13.2182C595.25 12.9818 595.077 12.7455 594.79 12.6273C594.561 12.5091 594.331 12.3909 594.101 12.3909C593.527 12.3909 592.953 12.6273 592.437 13.0409C592.437 13.0409 592.15 13.2773 591.633 13.75V22.9682H588.533V5.06364H591.633Z" fill="#232B30"/>
<path d="M603.632 5.06364V11.8C604.665 10.6773 605.813 10.0864 607.019 10.0864C607.765 10.0864 608.454 10.3227 609.143 10.7955C609.947 11.3273 610.578 12.2136 610.98 13.4546C611.324 14.4591 611.497 15.5818 611.497 16.7636C611.497 18.3591 611.21 19.7773 610.578 20.9591C610.234 21.6091 609.832 22.1409 609.258 22.5546C608.511 23.1455 607.65 23.3818 606.732 23.3818C605.928 23.3818 605.182 23.1455 604.493 22.7318C604.206 22.5546 603.804 22.2 603.287 21.7273L603.057 23.0864H600.531V5.06364H603.632ZM603.632 19.6591C603.689 19.7182 603.804 19.8364 603.919 19.8955C604.263 20.25 604.607 20.5455 604.895 20.7818C605.239 21.0182 605.641 21.1364 606.1 21.1364C607.593 21.1364 608.339 19.7182 608.339 16.9409C608.339 15.4636 608.109 14.3409 607.65 13.5727C607.248 12.8636 606.732 12.5091 606.1 12.5091C605.296 12.5091 604.493 13.0409 603.632 14.1046V19.6591Z" fill="#232B30"/>
<path d="M615.63 13.9273L612.702 13.5136C612.874 12.6864 613.219 11.9773 613.793 11.4455C614.712 10.5591 616.032 10.0864 617.697 10.0864C621.027 10.0864 622.692 11.5045 622.692 14.2818V20.0727C622.692 21.1955 622.749 22.2 622.864 23.0864H619.878C619.764 22.7909 619.706 22.3773 619.591 21.8455C618.271 22.85 617.008 23.3818 615.802 23.3818C614.712 23.3818 613.793 23.0273 613.104 22.3773C612.415 21.7273 612.071 20.8409 612.071 19.7182C612.071 17.7091 613.391 16.4091 615.975 15.7591C617.295 15.4636 618.501 15.1682 619.591 15.05V14.6364C619.591 13.8091 619.534 13.2182 619.362 12.9818C619.132 12.5091 618.558 12.2727 617.754 12.2727C616.549 12.2727 615.802 12.8636 615.63 13.9273ZM619.649 17.4136C618.558 17.5909 617.582 17.8273 616.778 18.1227C615.745 18.4773 615.171 19.0682 615.171 19.8955C615.171 20.3091 615.286 20.6636 615.573 20.9C615.802 21.0773 616.147 21.1955 616.491 21.1955C617.352 21.1955 618.386 20.7227 619.591 19.7182V17.4136H619.649Z" fill="#232B30"/>
<path d="M634.461 14.4L631.762 14.8727C631.762 14.3409 631.648 13.9273 631.475 13.5136C631.073 12.6864 630.499 12.2727 629.638 12.2727C627.916 12.2727 627.055 13.6909 627.055 16.5864C627.055 17.8273 627.227 18.8909 627.629 19.7182C627.801 20.1318 628.088 20.4864 628.49 20.7818C628.834 21.0182 629.236 21.1364 629.696 21.1364C630.901 21.1364 631.59 20.3091 631.877 18.5955L634.575 18.95C634.461 19.7773 634.231 20.4864 633.887 21.1364C632.968 22.6136 631.59 23.3227 629.638 23.3227C627.858 23.3227 626.481 22.7318 625.447 21.4909C624.471 20.3091 624.012 18.7727 624.012 17C624.012 15.05 624.471 13.4546 625.39 12.2136C626.481 10.7955 627.916 10.0273 629.753 10.0273C631.188 10.0273 632.394 10.5591 633.37 11.6818C633.887 12.45 634.288 13.3364 634.461 14.4Z" fill="#232B30"/>
<path d="M638.422 5.06364V15.5227L642.096 10.4409H645.426L641.866 14.9909L646 23.0864H642.728L639.857 17.4136L638.422 19.1864V23.0864H635.379V5.06364H638.422Z" fill="#232B30"/>
<path d="M448.797 15.5818C449.142 14.9909 449.371 14.4 449.429 13.6909L448.797 15.5818Z" fill="white"/>
<path d="M443.458 9.67273C441.506 9.67273 440.243 10.9727 440.243 12.9818C440.243 14.9318 441.506 16.2909 443.401 16.2909C445.295 16.2909 446.615 14.9909 446.615 13.0409C446.615 11.0318 445.352 9.67273 443.458 9.67273Z" fill="#232B30"/>
<path d="M439.152 24.5636C439.152 25.9818 440.645 26.6909 443.63 26.6909C446.903 26.6909 448.74 25.9818 448.74 24.6227C448.74 23.8545 448.108 23.3818 446.845 23.2045C445.754 23.0864 445.754 23.0864 441.965 22.7909C441.908 22.7909 441.563 22.7318 441.162 22.7318C440.932 22.85 440.702 22.9091 440.587 23.0273C439.611 23.4409 439.152 23.8545 439.152 24.5636Z" fill="#232B30"/>
<path d="M455.514 4H433.985C432.32 4 431 5.65455 431 7.36818V26.75C431 28.4636 432.32 30 433.985 30H455.514C457.179 30 458.557 28.4636 458.557 26.75V7.36818C458.557 5.65455 457.179 4 455.514 4ZM455.112 15.5818H451.782V19.0091H449.945V15.5818H448.797C447.821 17.1773 445.927 18.3 443.688 18.3C442.826 18.3 442.252 18.1818 441.219 17.9455L440.989 18.0636C440.186 18.5955 439.956 18.8318 439.956 19.1864C439.956 19.7182 440.702 20.1318 441.908 20.1909C444.606 20.3091 446.845 20.4864 447.993 20.7227C449.945 21.1364 451.266 22.5545 451.266 24.2682C451.266 26.9864 448.453 28.6409 443.745 28.6409C439.439 28.6409 436.741 27.2818 436.741 25.0364C436.741 23.7364 437.545 22.85 439.324 22.2C438.004 21.7864 437.372 21.0182 437.372 20.0136C437.372 18.8909 438.061 18.1818 439.841 17.2955C438.234 16.2318 437.43 14.8136 437.43 12.9818C437.43 9.85 439.956 7.66364 443.458 7.66364C445.065 7.66364 446.328 8.07727 447.362 8.90455C448.338 7.9 449.314 7.42727 450.519 7.42727C450.634 7.42727 450.864 7.48636 451.151 7.48636V9.55454C450.749 9.49545 450.577 9.43636 450.232 9.43636C449.601 9.43636 449.084 9.55455 448.453 9.90909C449.142 10.9727 449.486 11.9773 449.486 13.1C449.486 13.2773 449.486 13.4545 449.429 13.6318H450.003V10.2045H451.84V13.6318H455.112V15.5818Z" fill="#232B30"/>
<path fill-rule="evenodd" clip-rule="evenodd" d="M465.905 15.1682C465.905 17 466.939 18.2409 468.489 18.2409C470.039 18.2409 471.13 17 471.13 15.2273C471.13 13.3364 470.039 12.0955 468.546 12.0955C466.939 12.0364 465.905 13.2773 465.905 15.1682ZM466.192 24.5045C465.331 24.9182 464.987 25.3318 464.987 25.9818C464.987 27.2818 466.192 27.9318 468.661 27.9318C471.359 27.9318 472.852 27.2227 472.852 25.9818C472.852 25.2727 472.335 24.8 471.302 24.6818C470.441 24.5636 470.441 24.5636 467.283 24.3273C467.226 24.3273 466.939 24.2682 466.594 24.2682C466.479 24.3864 466.307 24.4455 466.192 24.5045ZM474.746 11.9773C474.459 11.9182 474.287 11.8591 474 11.8591C473.483 11.8591 473.081 11.9773 472.565 12.2727C473.139 13.2773 473.426 14.2227 473.426 15.2273C473.426 17.9455 471.359 20.0136 468.661 20.0136C467.972 20.0136 467.513 19.8955 466.652 19.7182L466.479 19.8364C465.848 20.3091 465.618 20.5455 465.618 20.9C465.618 21.4318 466.25 21.7864 467.226 21.8455C469.465 21.9636 471.244 22.1409 472.22 22.3182C473.828 22.6727 474.919 24.0318 474.919 25.6273C474.919 28.1682 472.622 29.7045 468.718 29.7045C465.159 29.7045 462.977 28.4045 462.977 26.3364C462.977 25.0955 463.666 24.2682 465.101 23.6773C464.011 23.2636 463.494 22.5545 463.494 21.6682C463.494 20.6045 464.068 19.9545 465.503 19.1273C464.183 18.1227 463.551 16.8227 463.551 15.05C463.551 12.1545 465.618 10.0273 468.489 10.0273C469.809 10.0273 470.842 10.4409 471.646 11.15C472.45 10.2045 473.254 9.79091 474.23 9.79091C474.287 9.79091 474.517 9.85 474.746 9.85V11.9773Z" fill="#232B30"/>
<path d="M485.769 23.1454H483.415V21.2545C482.095 22.7909 481.061 23.3818 479.569 23.3818C478.306 23.3818 477.215 22.85 476.756 22.0227C476.354 21.2545 476.182 20.3091 476.182 18.3V10.4409H478.535V18.3591C478.593 19.7182 478.593 19.9545 478.65 20.3682C478.822 21.1364 479.511 21.6682 480.258 21.6682C481.348 21.6682 482.037 21.2545 483.415 19.8364V10.4409H485.769V23.1454Z" fill="#232B30"/>
<path fill-rule="evenodd" clip-rule="evenodd" d="M490.649 23.1455H488.295V10.4409H490.649V23.1455ZM490.649 7.9591H488.295V5.59546H490.649V7.9591Z" fill="#232B30"/>
<path fill-rule="evenodd" clip-rule="evenodd" d="M499.949 16.5273C496.045 17.4136 494.725 18.2409 494.725 19.8364C494.725 20.9 495.414 21.6682 496.447 21.6682C497.538 21.6682 498.629 21.0182 499.949 19.6V16.5273ZM492.83 13.1C493.577 11.15 495.184 10.1454 497.538 10.1454C498.858 10.1454 499.949 10.4409 500.753 11.0909C501.786 11.8 502.131 12.7454 502.131 14.6364V19.9545C502.131 21.1364 502.188 22.0818 502.418 23.1454H500.121C500.007 22.6136 500.007 22.3773 499.892 21.4318C498.342 23.0273 497.481 23.4409 495.988 23.4409C493.864 23.4409 492.371 21.9636 492.371 19.7773C492.371 17.7091 493.577 16.4091 496.275 15.6409C497.538 15.2864 498.973 14.9318 499.892 14.7545C499.892 13.75 499.834 13.4545 499.72 13.1C499.433 12.3909 498.686 11.9773 497.653 11.9773C496.275 11.9773 495.299 12.6273 494.897 13.8091L492.83 13.1Z" fill="#232B30"/>
<path d="M508.446 11.9182C509.824 10.5591 511.029 9.96817 512.35 9.96817C513.613 9.96817 514.646 10.6773 515.163 11.9182C516.426 10.6773 517.919 9.96817 519.296 9.96817C520.445 9.96817 521.478 10.5591 521.995 11.4454C522.397 12.1545 522.569 13.1 522.569 14.6364V23.2045H518.55V15.05C518.55 13.75 518.206 13.2773 517.344 13.2773C516.713 13.2773 516.081 13.6318 515.507 14.2818V23.2045H511.489V15.05C511.489 13.8682 511.087 13.2773 510.34 13.2773C509.709 13.2773 509.135 13.6318 508.503 14.2818V23.2045H504.485V10.4409H508.503V11.9182H508.446Z" fill="#232B30"/>
<path fill-rule="evenodd" clip-rule="evenodd" d="M531.64 17.4136C530.951 17.5318 530.204 17.7091 529.515 18.0045C528.654 18.3591 528.252 18.8909 528.252 19.5409C528.252 20.1909 528.712 20.6045 529.458 20.6045C530.204 20.6045 530.836 20.3682 531.64 19.7182V17.4136ZM524.521 13.9273C524.98 11.2091 526.76 9.96817 530.204 9.96817C532.328 9.96817 533.821 10.4409 534.682 11.3864C535.486 12.2136 535.601 12.8636 535.601 15.2273V18.4773C535.601 21.0773 535.658 22.2 535.773 23.1454H531.869L531.697 22.0818C530.434 23.0864 529.401 23.5 527.965 23.5C525.497 23.5 523.889 22.0818 523.889 19.9545C523.889 17.7682 525.21 16.4682 528.425 15.5818C528.941 15.4045 529.975 15.1682 531.525 14.8727V14.5182C531.525 13.3364 531.123 12.9227 530.032 12.9227C528.999 12.9227 528.482 13.3954 528.31 14.4591L524.521 13.9273Z" fill="#232B30"/>
<path fill-rule="evenodd" clip-rule="evenodd" d="M541.629 23.1455H537.61V10.4409H541.629V23.1455ZM541.629 8.72727H537.61V5.12273H541.629V8.72727Z" fill="#232B30"/>
<path d="M549.092 13.8682C549.035 13.1 548.633 12.6864 547.944 12.6864C547.255 12.6864 546.796 13.1591 546.796 13.75C546.796 14.3409 547.025 14.6955 547.599 14.9318C547.714 14.9909 548.461 15.1682 549.724 15.4046C552.077 15.8773 553.226 17.1773 553.226 19.2455C553.226 21.9046 551.159 23.5591 547.772 23.5591C544.901 23.5591 543.351 22.2591 543.122 19.6591L546.853 19.4227C546.968 20.3682 547.427 20.8409 548.231 20.8409C548.92 20.8409 549.437 20.3682 549.437 19.7182C549.437 19.0682 548.977 18.6546 547.944 18.4182C545.877 18.0046 545.188 17.8273 544.557 17.3546C543.581 16.7046 543.064 15.5818 543.064 14.2818C543.064 11.7409 545.073 10.0273 548.001 10.0273C550.068 10.0273 551.618 10.7364 552.307 12.0364C552.537 12.5091 552.652 12.8636 552.766 13.5727L549.092 13.8682Z" fill="#232B30"/>
</g>
<g opacity="0.6" clip-path="url(#clip0)">
<path d="M223 22.6834V5.42458C223 4.61639 223.183 4.01676 223.523 3.6257C223.889 3.20857 224.359 3 224.96 3C225.562 3 226.058 3.20857 226.424 3.59963C226.79 3.99069 226.973 4.61639 226.973 5.42458V22.6834C226.973 23.4916 226.79 24.0912 226.398 24.5084C226.032 24.8994 225.535 25.108 224.934 25.108C224.359 25.108 223.863 24.8994 223.497 24.4823C223.183 24.0391 223 23.4395 223 22.6834Z" fill="#232B30"/>
<path d="M242.238 17.9907H234.449C234.449 18.9032 234.632 19.6853 234.998 20.3892C235.363 21.067 235.834 21.5885 236.409 21.9535C237.01 22.2924 237.638 22.4749 238.369 22.4749C238.84 22.4749 239.284 22.4227 239.676 22.3184C240.068 22.2142 240.46 22.0317 240.826 21.797C241.192 21.5624 241.532 21.3017 241.846 21.041C242.159 20.7803 242.552 20.3892 243.048 19.946C243.257 19.7635 243.545 19.6853 243.937 19.6853C244.355 19.6853 244.669 19.7896 244.93 20.0242C245.192 20.2589 245.322 20.5717 245.322 20.9628C245.322 21.3278 245.192 21.7449 244.904 22.2142C244.616 22.6834 244.198 23.1527 243.623 23.5959C243.048 24.0391 242.342 24.4041 241.48 24.6909C240.617 24.9777 239.624 25.1341 238.5 25.1341C235.939 25.1341 233.952 24.4041 232.514 22.9441C231.103 21.4842 230.371 19.5028 230.371 17.0261C230.371 15.8529 230.554 14.7579 230.894 13.7672C231.234 12.7505 231.756 11.8901 232.436 11.1862C233.116 10.4562 233.926 9.90876 234.919 9.54377C235.912 9.15271 236.984 8.97021 238.186 8.97021C239.755 8.97021 241.088 9.30914 242.186 9.9609C243.31 10.6127 244.146 11.473 244.695 12.5158C245.244 13.5587 245.531 14.6015 245.531 15.6965C245.531 16.6872 245.244 17.3389 244.669 17.6518C244.094 17.8343 243.283 17.9907 242.238 17.9907ZM234.449 15.7225H241.689C241.584 14.3669 241.218 13.3501 240.591 12.6723C239.964 11.9944 239.101 11.6555 238.082 11.6555C237.089 11.6555 236.278 11.9944 235.625 12.6723C234.971 13.3762 234.579 14.3929 234.449 15.7225Z" fill="#232B30"/>
<path d="M262.155 17.2868V22.5791C262.155 23.4134 261.972 24.0391 261.58 24.4562C261.188 24.8734 260.692 25.0819 260.064 25.0819C259.463 25.0819 258.967 24.8734 258.601 24.4562C258.235 24.0391 258.026 23.4134 258.026 22.5791V16.2439C258.026 15.2533 257.999 14.4711 257.921 13.9236C257.843 13.3762 257.66 12.9069 257.372 12.568C257.058 12.203 256.588 12.0466 255.934 12.0466C254.628 12.0466 253.765 12.4898 253.347 13.3762C252.929 14.2626 252.719 15.54 252.719 17.2346V22.6052C252.719 23.4395 252.536 24.0652 252.144 24.4823C251.778 24.8994 251.282 25.108 250.654 25.108C250.053 25.108 249.557 24.8994 249.165 24.4823C248.773 24.0652 248.59 23.4395 248.59 22.6052V11.2123C248.59 10.4562 248.773 9.90875 249.112 9.51769C249.452 9.12663 249.923 8.94413 250.472 8.94413C251.02 8.94413 251.465 9.12663 251.831 9.49162C252.197 9.85661 252.38 10.352 252.38 11.0037V11.3426C253.059 10.5084 253.817 9.90875 254.601 9.51769C255.386 9.12663 256.274 8.94413 257.241 8.94413C258.235 8.94413 259.097 9.1527 259.829 9.54376C260.561 9.93482 261.136 10.5344 261.606 11.3426C262.286 10.5344 262.992 9.90875 263.776 9.51769C264.534 9.12663 265.397 8.91806 266.338 8.91806C267.435 8.91806 268.376 9.12663 269.16 9.56983C269.945 9.98696 270.546 10.6127 270.938 11.3948C271.278 12.1248 271.461 13.2458 271.461 14.784V22.5531C271.461 23.3873 271.278 24.013 270.886 24.4302C270.494 24.8473 269.997 25.0559 269.37 25.0559C268.768 25.0559 268.272 24.8473 267.88 24.4302C267.488 24.013 267.305 23.3873 267.305 22.5531V15.905C267.305 15.0447 267.279 14.3668 267.2 13.8454C267.122 13.324 266.939 12.9069 266.599 12.5419C266.285 12.203 265.789 12.0205 265.135 12.0205C264.612 12.0205 264.116 12.1769 263.645 12.4898C263.175 12.8026 262.809 13.2197 262.547 13.7412C262.312 14.419 262.155 15.5922 262.155 17.2868Z" fill="#232B30"/>
<path d="M306.225 11.108V11.6033C306.931 10.6909 307.689 10.013 308.525 9.56983C309.361 9.12663 310.302 8.91806 311.4 8.91806C312.446 8.91806 313.387 9.1527 314.223 9.5959C315.06 10.0652 315.661 10.6909 316.079 11.5251C316.34 12.0205 316.523 12.5419 316.602 13.0894C316.68 13.6629 316.706 14.3668 316.706 15.2533V22.6574C316.706 23.4655 316.523 24.0652 316.157 24.4562C315.792 24.8473 315.321 25.0559 314.746 25.0559C314.145 25.0559 313.674 24.8473 313.308 24.4302C312.942 24.013 312.759 23.4134 312.759 22.6313V16.0354C312.759 14.7318 312.576 13.7151 312.211 13.0372C311.845 12.3594 311.113 11.9944 310.015 11.9944C309.309 11.9944 308.656 12.203 308.081 12.6201C307.506 13.0372 307.061 13.6108 306.8 14.3668C306.617 14.9665 306.512 16.0614 306.512 17.6778V22.6574C306.512 23.4655 306.329 24.0652 305.937 24.4823C305.545 24.8994 305.075 25.0819 304.474 25.0819C303.899 25.0819 303.428 24.8734 303.062 24.4562C302.696 24.0391 302.513 23.4395 302.513 22.6574V11.1862C302.513 10.4302 302.67 9.85661 303.01 9.49162C303.35 9.12663 303.794 8.91806 304.369 8.91806C304.709 8.91806 305.049 8.99627 305.31 9.17877C305.598 9.33519 305.807 9.5959 305.99 9.93482C306.12 10.2477 306.225 10.6387 306.225 11.108Z" fill="#232B30"/>
<path d="M331.788 17.9907H323.999C323.999 18.9032 324.182 19.6853 324.548 20.3892C324.914 21.067 325.384 21.5885 325.959 21.9535C326.561 22.2924 327.188 22.4749 327.92 22.4749C328.39 22.4749 328.835 22.4227 329.227 22.3184C329.619 22.2142 330.011 22.0317 330.377 21.797C330.743 21.5624 331.083 21.3017 331.396 21.041C331.71 20.7803 332.102 20.3892 332.599 19.946C332.808 19.7635 333.095 19.6853 333.487 19.6853C333.905 19.6853 334.219 19.7896 334.48 20.0242C334.742 20.2589 334.873 20.5717 334.873 20.9628C334.873 21.3278 334.742 21.7449 334.454 22.2142C334.167 22.6834 333.749 23.1527 333.174 23.5959C332.599 24.0391 331.893 24.4041 331.03 24.6909C330.168 24.9777 329.174 25.1341 328.05 25.1341C325.489 25.1341 323.502 24.4041 322.065 22.9441C320.653 21.4842 319.921 19.5028 319.921 17.0261C319.921 15.8529 320.104 14.7579 320.444 13.7672C320.784 12.7505 321.307 11.8901 321.986 11.1862C322.666 10.4562 323.476 9.90876 324.469 9.54377C325.463 9.15271 326.534 8.97021 327.737 8.97021C329.305 8.97021 330.638 9.30914 331.736 9.9609C332.86 10.6127 333.696 11.473 334.245 12.5158C334.794 13.5587 335.082 14.6015 335.082 15.6965C335.082 16.6872 334.794 17.3389 334.219 17.6518C333.644 17.8343 332.834 17.9907 331.788 17.9907ZM323.999 15.7225H331.239C331.135 14.3669 330.769 13.3501 330.142 12.6723C329.514 11.9944 328.652 11.6555 327.632 11.6555C326.639 11.6555 325.829 11.9944 325.175 12.6723C324.522 13.3762 324.13 14.3929 323.999 15.7225Z" fill="#232B30"/>
<path d="M341.355 25.5773L341.721 24.6909L336.807 12.3594C336.493 11.6555 336.362 11.1341 336.362 10.8212C336.362 10.4823 336.441 10.1695 336.624 9.88268C336.807 9.5959 337.042 9.36126 337.356 9.17877C337.669 8.99627 337.983 8.91806 338.323 8.91806C338.898 8.91806 339.342 9.10056 339.63 9.46555C339.917 9.83054 340.179 10.352 340.414 11.0298L343.76 20.8324L346.949 11.7337C347.21 11.0037 347.419 10.4302 347.628 9.98696C347.837 9.56983 348.046 9.28305 348.282 9.1527C348.517 8.99627 348.831 8.94413 349.249 8.94413C349.562 8.94413 349.85 9.02234 350.111 9.17877C350.399 9.33519 350.608 9.54376 350.765 9.83054C350.922 10.0912 351 10.378 351 10.6909C350.974 10.8734 350.895 11.1341 350.817 11.473C350.739 11.8119 350.634 12.1508 350.503 12.5158L345.302 26.0987C344.857 27.2979 344.413 28.2365 343.995 28.9143C343.577 29.5922 343.002 30.1136 342.296 30.4786C341.59 30.8436 340.649 31.0261 339.447 31.0261C338.271 31.0261 337.408 30.8957 336.807 30.635C336.232 30.3743 335.918 29.9311 335.918 29.2533C335.918 28.784 336.049 28.4451 336.336 28.1843C336.624 27.9236 337.016 27.8194 337.565 27.8194C337.774 27.8194 337.983 27.8454 338.192 27.8976C338.454 27.9497 338.663 27.9758 338.846 27.9758C339.316 27.9758 339.656 27.8976 339.917 27.7672C340.179 27.6369 340.414 27.4022 340.623 27.0633C340.832 26.7244 341.067 26.229 341.355 25.5773Z" fill="#232B30"/>
<path d="M299.664 14.3929C299.664 14.3929 299.69 14.3929 299.664 14.3929C299.298 12.5158 299.455 10.4041 299.742 9.43948C300.004 8.47486 299.533 7.92738 299.533 7.92738C299.533 7.92738 299.115 7.32775 298.122 7.32775C297.233 7.32775 295.796 7.37989 293.887 6.36313C293.705 6.25885 293.495 6.12849 293.312 6.02421C293.312 6.02421 293.286 6.02421 293.286 5.99814C289.104 3.80819 283.85 4.04283 279.825 7.09311C275.747 10.1695 274.075 15.2533 275.172 19.946C275.46 21.7449 275.198 23.7784 274.963 24.6648C274.702 25.6294 275.172 26.1769 275.172 26.1769C275.172 26.1769 275.591 26.7765 276.584 26.7765C277.499 26.7765 278.936 26.7244 280.871 27.7672C285.157 30.3743 290.777 30.27 295.011 27.0894C299.011 24.0391 300.683 19.0335 299.664 14.3929ZM293.234 24.7952C288.973 28.0019 282.909 27.1676 279.668 22.9181C276.453 18.6685 277.29 12.6201 281.55 9.41341C285.811 6.2067 291.875 7.04097 295.09 11.2905C298.331 15.514 297.495 21.5624 293.234 24.7952Z" fill="#232B30"/>
</g>
</g>
<defs>
<clipPath id="clip0">
<rect width="128" height="28" fill="white" transform="translate(223 3)"/>
</clipPath>
</defs>
</svg>
