<svg width="184" height="28" viewBox="0 0 184 28" fill="none" xmlns="http://www.w3.org/2000/svg">
<g clip-path="url(#clip0)">
<path d="M13.2731 16.5706V21.2443H0V0H4.83429V16.5706H13.2731Z" fill="white"/>
<path d="M20.2701 17.1654C21.6271 17.1654 22.8144 16.613 23.4929 15.8907L27.5215 18.2276C25.8677 20.522 23.4081 21.7117 20.2277 21.7117C14.5028 21.7117 10.9407 17.8452 10.9407 12.8315C10.9407 7.81788 14.5453 3.95142 19.846 3.95142C24.7227 3.95142 28.3696 7.7329 28.3696 12.8315C28.3696 13.5538 28.2848 14.1912 28.1576 14.8285H16.2839C16.92 16.5705 18.4466 17.1654 20.2701 17.1654ZM23.3657 11.047C22.8144 9.09254 21.3302 8.37023 19.8036 8.37023C17.8953 8.37023 16.6232 9.30498 16.1567 11.047H23.3657Z" fill="white"/>
<path d="M52.8804 10.8771V21.2018H47.8341V11.3444C47.8341 9.64489 47.0283 8.58268 45.4169 8.58268C43.7207 8.58268 42.7877 9.77236 42.7877 11.7268V21.2018H37.7838V11.3444C37.7838 9.64489 36.9781 8.58268 35.3667 8.58268C33.6704 8.58268 32.7375 9.77236 32.7375 11.7268V21.2018H27.6912V4.41879H32.7375V5.94838C33.5008 4.80119 34.985 3.95142 37.2325 3.95142C39.2256 3.95142 40.6674 4.7587 41.6428 6.16082C42.5757 4.80119 44.1447 3.95142 46.5195 3.95142C50.336 3.95142 52.8804 6.67069 52.8804 10.8771Z" fill="white"/>
<path d="M52.838 12.8315C52.838 7.81788 56.7818 3.95142 61.7433 3.95142C66.6624 3.95142 70.6485 7.81788 70.6485 12.8315C70.6485 17.8452 66.7048 21.7117 61.7433 21.7117C56.7818 21.7117 52.838 17.8027 52.838 12.8315ZM65.6022 12.8315C65.6022 10.4522 63.906 8.8801 61.7433 8.8801C59.5806 8.8801 57.8843 10.4522 57.8843 12.8315C57.8843 15.2109 59.5806 16.783 61.7433 16.783C63.906 16.783 65.6022 15.2109 65.6022 12.8315Z" fill="white"/>
<path d="M86.0419 10.8771V21.2018H80.9956V11.6419C80.9956 9.55991 79.681 8.58268 78.0696 8.58268C76.2037 8.58268 74.9315 9.64489 74.9315 12.0667V21.2443H69.8852V4.41879H74.9315V5.99087C75.822 4.7587 77.5183 3.95142 79.7234 3.95142C83.1583 3.95142 86.0419 6.37327 86.0419 10.8771Z" fill="white"/>
<path d="M95.3713 17.1654C96.7283 17.1654 97.9156 16.613 98.5941 15.8907L102.623 18.2276C100.969 20.522 98.5093 21.7117 95.3289 21.7117C89.604 21.7117 86.0419 17.8452 86.0419 12.8315C86.0419 7.81788 89.6464 3.95142 94.9472 3.95142C99.8239 3.95142 103.471 7.7329 103.471 12.8315C103.471 13.5538 103.386 14.1912 103.259 14.8285H91.3427C91.9788 16.5705 93.5478 17.1654 95.3713 17.1654ZM98.4669 11.047C97.9156 9.09254 96.4314 8.37023 94.9048 8.37023C92.9965 8.37023 91.7243 9.30498 91.2579 11.047H98.4669Z" fill="white"/>
<path d="M134.258 8.28525C133.918 8.28525 133.706 8.4552 133.579 8.79511L130.441 18.695C130.017 20.0546 129.296 21.0743 128.363 21.7116C127.388 22.349 126.158 22.6889 124.589 22.6889C123.656 22.6889 122.85 22.6039 122.172 22.3915C121.493 22.179 120.9 21.9241 120.433 21.5417C119.967 21.2018 119.585 20.7769 119.288 20.267C118.991 19.7572 118.822 19.2473 118.737 18.695L116.193 5.26856C116.15 4.92865 116.108 4.63123 116.108 4.41878C116.108 4.41878 119.119 4.41878 119.84 4.41878C120.73 4.41878 121.663 4.29132 122.087 6.33077L123.995 17.3353C124.038 17.7602 124.292 17.9302 124.716 17.9302C124.886 17.9302 125.056 17.8877 125.183 17.8027C125.31 17.7177 125.395 17.5903 125.437 17.3778L128.533 7.77538C128.957 6.50072 129.593 5.52349 130.483 4.92865C131.374 4.33381 132.604 3.9939 134.258 3.9939C135.869 3.9939 137.099 4.29132 137.947 4.88616C138.795 5.481 139.389 6.41575 139.77 7.60543L142.781 17.3353C142.824 17.5478 142.951 17.6752 143.036 17.7602C143.163 17.8452 143.29 17.8877 143.502 17.8877C143.884 17.8877 144.138 17.6752 144.223 17.2928L146.301 6.37326C146.555 4.37629 147.997 4.37629 147.997 4.37629H152.323C152.323 4.54625 152.195 5.01362 152.153 5.22607L149.481 18.695C149.227 19.8846 148.633 20.8194 147.7 21.5842C146.767 22.3065 145.368 22.6889 143.545 22.6889C140.534 22.6889 138.625 21.3717 137.82 18.695L134.936 8.8376C134.809 8.4552 134.597 8.28525 134.258 8.28525Z" fill="#F26538"/>
<path d="M118.737 18.695L116.193 5.26858C116.15 4.92867 116.108 4.63125 116.108 4.41881C116.108 4.41881 119.119 4.41881 119.84 4.41881C120.73 4.41881 121.663 4.29134 122.087 6.3308L123.995 17.3353C124.08 17.7177 118.822 19.2473 118.737 18.695Z" fill="url(#paint0_linear)"/>
<path d="M120.476 4.41884C117.677 4.75875 116.574 8.49775 116.574 8.49775L112.291 20.7345C110.425 26.088 107.415 28.2125 102.75 27.9575V23.2413C105.082 23.2413 106.185 22.519 106.948 20.437L100.29 4.37635H105.846L109.577 14.6586L112.079 6.58576C112.079 6.58576 112.376 5.48105 112.843 4.97119C113.436 4.24888 114.539 4.37635 114.539 4.37635C114.539 4.37635 119.331 4.41884 120.476 4.41884Z" fill="white"/>
<path d="M184 4.4613L178.275 20.7769C176.409 26.1305 173.398 28.2549 168.734 28V23.2838C171.066 23.2838 172.169 22.5615 172.932 20.4795L166.232 4.4613H171.745L175.476 14.7435L178.614 4.4613H184Z" fill="#F26538"/>
<path d="M163.136 4.46127V6.03335C162.034 4.75869 160.38 3.9939 158.132 3.9939C153.722 3.9939 150.118 7.86036 150.118 12.874C150.118 17.8877 153.722 21.7541 158.132 21.7541C160.38 21.7541 162.034 20.9893 163.136 19.7147V21.2443H168.183V4.46127H163.136ZM158.853 17.3353C156.309 17.3353 154.231 15.2534 154.231 12.7041C154.231 10.1547 156.309 8.0728 158.853 8.0728C161.398 8.0728 163.475 10.1547 163.475 12.7041C163.475 15.2534 161.398 17.3353 158.853 17.3353Z" fill="#F26538"/>
</g>
<defs>
<linearGradient id="paint0_linear" x1="117.982" y1="6.16479" x2="121.721" y2="15.734" gradientUnits="userSpaceOnUse">
<stop stop-color="#953D07"/>
<stop offset="1" stop-color="#F26636"/>
</linearGradient>
<clipPath id="clip0">
<rect width="184" height="28" fill="white"/>
</clipPath>
</defs>
</svg>
